<mxfile host="app.diagrams.net" agent="Mozilla/5.0 (Windows NT 10.0; Win64; x64) AppleWebKit/537.36 (KHTML, like Gecko) Chrome/131.0.0.0 Safari/537.36 Edg/131.0.0.0" version="24.8.4">
  <diagram name="Страница — 1" id="Pnpjavwgu8jaHtfD7N36">
    <mxGraphModel dx="2520" dy="2682" grid="1" gridSize="10" guides="1" tooltips="1" connect="1" arrows="1" fold="1" page="1" pageScale="1" pageWidth="825" pageHeight="1300" math="0" shadow="0">
      <root>
        <mxCell id="0" />
        <mxCell id="1" parent="0" />
        <mxCell id="gDB7nwy7ESsKub3q5WBZ-1" value="Item" style="swimlane;fontStyle=1;align=center;verticalAlign=top;childLayout=stackLayout;horizontal=1;startSize=26;horizontalStack=0;resizeParent=1;resizeParentMax=0;resizeLast=0;collapsible=1;marginBottom=0;whiteSpace=wrap;html=1;" parent="1" vertex="1">
          <mxGeometry x="120" y="652" width="490" height="260" as="geometry" />
        </mxCell>
        <mxCell id="gDB7nwy7ESsKub3q5WBZ-2" value="+ Category: Category&lt;div&gt;&lt;u&gt;-_counter: int&lt;/u&gt;&lt;/div&gt;&lt;div&gt;-_id: int&lt;/div&gt;&lt;div&gt;-_name: string&lt;/div&gt;&lt;div&gt;-_info: string&lt;/div&gt;&lt;div&gt;-_cost: double&lt;/div&gt;&lt;div&gt;-_active: bool&lt;/div&gt;&lt;div&gt;+ID: int {readOnly}&lt;/div&gt;&lt;div&gt;+Name: string&lt;/div&gt;&lt;div&gt;+Info: string&lt;/div&gt;&lt;div&gt;+Cost: double&lt;/div&gt;&lt;div&gt;+Active: bool&lt;/div&gt;" style="text;strokeColor=none;fillColor=none;align=left;verticalAlign=top;spacingLeft=4;spacingRight=4;overflow=hidden;rotatable=0;points=[[0,0.5],[1,0.5]];portConstraint=eastwest;whiteSpace=wrap;html=1;" parent="gDB7nwy7ESsKub3q5WBZ-1" vertex="1">
          <mxGeometry y="26" width="490" height="184" as="geometry" />
        </mxCell>
        <mxCell id="gDB7nwy7ESsKub3q5WBZ-3" value="" style="line;strokeWidth=1;fillColor=none;align=left;verticalAlign=middle;spacingTop=-1;spacingLeft=3;spacingRight=3;rotatable=0;labelPosition=right;points=[];portConstraint=eastwest;strokeColor=inherit;" parent="gDB7nwy7ESsKub3q5WBZ-1" vertex="1">
          <mxGeometry y="210" width="490" height="8" as="geometry" />
        </mxCell>
        <mxCell id="gDB7nwy7ESsKub3q5WBZ-4" value="+Item()&lt;div&gt;+Item(name: string, info:string, cost: double, category: Category)&lt;/div&gt;" style="text;strokeColor=none;fillColor=none;align=left;verticalAlign=top;spacingLeft=4;spacingRight=4;overflow=hidden;rotatable=0;points=[[0,0.5],[1,0.5]];portConstraint=eastwest;whiteSpace=wrap;html=1;" parent="gDB7nwy7ESsKub3q5WBZ-1" vertex="1">
          <mxGeometry y="218" width="490" height="42" as="geometry" />
        </mxCell>
        <mxCell id="gDB7nwy7ESsKub3q5WBZ-10" value="Customer" style="swimlane;fontStyle=1;align=center;verticalAlign=top;childLayout=stackLayout;horizontal=1;startSize=26;horizontalStack=0;resizeParent=1;resizeParentMax=0;resizeLast=0;collapsible=1;marginBottom=0;whiteSpace=wrap;html=1;" parent="1" vertex="1">
          <mxGeometry x="940" y="699" width="700" height="166" as="geometry" />
        </mxCell>
        <mxCell id="gDB7nwy7ESsKub3q5WBZ-11" value="&lt;u&gt;-_counter: int&lt;/u&gt;&lt;div&gt;-_id: int&lt;/div&gt;&lt;div&gt;-_fullname: string&lt;/div&gt;&lt;div&gt;+Address: Address&lt;/div&gt;&lt;div&gt;+ID: int {readOnly}&lt;/div&gt;&lt;div&gt;+FullName: string&lt;/div&gt;" style="text;strokeColor=none;fillColor=none;align=left;verticalAlign=top;spacingLeft=4;spacingRight=4;overflow=hidden;rotatable=0;points=[[0,0.5],[1,0.5]];portConstraint=eastwest;whiteSpace=wrap;html=1;" parent="gDB7nwy7ESsKub3q5WBZ-10" vertex="1">
          <mxGeometry y="26" width="700" height="90" as="geometry" />
        </mxCell>
        <mxCell id="gDB7nwy7ESsKub3q5WBZ-12" value="" style="line;strokeWidth=1;fillColor=none;align=left;verticalAlign=middle;spacingTop=-1;spacingLeft=3;spacingRight=3;rotatable=0;labelPosition=right;points=[];portConstraint=eastwest;strokeColor=inherit;" parent="gDB7nwy7ESsKub3q5WBZ-10" vertex="1">
          <mxGeometry y="116" width="700" height="8" as="geometry" />
        </mxCell>
        <mxCell id="gDB7nwy7ESsKub3q5WBZ-13" value="+Customer()&lt;div&gt;+Customer(fullname: string, index: int, country: string, city: string, street: string, building: string, apartment: string)&lt;/div&gt;" style="text;strokeColor=none;fillColor=none;align=left;verticalAlign=top;spacingLeft=4;spacingRight=4;overflow=hidden;rotatable=0;points=[[0,0.5],[1,0.5]];portConstraint=eastwest;whiteSpace=wrap;html=1;" parent="gDB7nwy7ESsKub3q5WBZ-10" vertex="1">
          <mxGeometry y="124" width="700" height="42" as="geometry" />
        </mxCell>
        <mxCell id="gDB7nwy7ESsKub3q5WBZ-14" value="ValueValidator" style="swimlane;fontStyle=1;align=center;verticalAlign=top;childLayout=stackLayout;horizontal=1;startSize=26;horizontalStack=0;resizeParent=1;resizeParentMax=0;resizeLast=0;collapsible=1;marginBottom=0;whiteSpace=wrap;html=1;" parent="1" vertex="1">
          <mxGeometry x="520" y="949" width="490" height="100" as="geometry">
            <mxRectangle x="520" y="750" width="120" height="30" as="alternateBounds" />
          </mxGeometry>
        </mxCell>
        <mxCell id="gDB7nwy7ESsKub3q5WBZ-15" value="&lt;u&gt;-_alphobet: string&lt;/u&gt;" style="text;strokeColor=none;fillColor=none;align=left;verticalAlign=top;spacingLeft=4;spacingRight=4;overflow=hidden;rotatable=0;points=[[0,0.5],[1,0.5]];portConstraint=eastwest;whiteSpace=wrap;html=1;" parent="gDB7nwy7ESsKub3q5WBZ-14" vertex="1">
          <mxGeometry y="26" width="490" height="26" as="geometry" />
        </mxCell>
        <mxCell id="gDB7nwy7ESsKub3q5WBZ-16" value="" style="line;strokeWidth=1;fillColor=none;align=left;verticalAlign=middle;spacingTop=-1;spacingLeft=3;spacingRight=3;rotatable=0;labelPosition=right;points=[];portConstraint=eastwest;strokeColor=inherit;" parent="gDB7nwy7ESsKub3q5WBZ-14" vertex="1">
          <mxGeometry y="52" width="490" height="8" as="geometry" />
        </mxCell>
        <mxCell id="gDB7nwy7ESsKub3q5WBZ-17" value="&lt;u&gt;+AssertStringOnLength(value: string, maxLength: int, propertyName: string)&lt;/u&gt;&lt;div&gt;&lt;u&gt;+CheckingString(stringToCheck: string. validCharacters: string, propertyName: string)&lt;/u&gt;&lt;/div&gt;" style="text;strokeColor=none;fillColor=none;align=left;verticalAlign=top;spacingLeft=4;spacingRight=4;overflow=hidden;rotatable=0;points=[[0,0.5],[1,0.5]];portConstraint=eastwest;whiteSpace=wrap;html=1;" parent="gDB7nwy7ESsKub3q5WBZ-14" vertex="1">
          <mxGeometry y="60" width="490" height="40" as="geometry" />
        </mxCell>
        <mxCell id="x2ZW6m5DBQwnr-81MUE0-3" value="" style="edgeStyle=orthogonalEdgeStyle;rounded=0;orthogonalLoop=1;jettySize=auto;html=1;" parent="1" edge="1">
          <mxGeometry relative="1" as="geometry">
            <mxPoint x="175" y="1131.0000000000002" as="sourcePoint" />
            <mxPoint x="175" y="1131.0000000000002" as="targetPoint" />
          </mxGeometry>
        </mxCell>
        <mxCell id="x2ZW6m5DBQwnr-81MUE0-20" value="&amp;lt;&amp;lt;enumeration&amp;gt;&amp;gt;&lt;div&gt;Category&lt;/div&gt;" style="swimlane;fontStyle=1;align=center;verticalAlign=top;childLayout=stackLayout;horizontal=1;startSize=40;horizontalStack=0;resizeParent=1;resizeParentMax=0;resizeLast=0;collapsible=1;marginBottom=0;whiteSpace=wrap;html=1;" parent="1" vertex="1">
          <mxGeometry x="285" y="459" width="160" height="150" as="geometry">
            <mxRectangle x="390" y="920" width="140" height="40" as="alternateBounds" />
          </mxGeometry>
        </mxCell>
        <mxCell id="x2ZW6m5DBQwnr-81MUE0-21" value="&lt;div&gt;Автозапчасти&lt;/div&gt;&lt;div&gt;Химия&lt;/div&gt;&lt;div&gt;Одежда&lt;/div&gt;&lt;div&gt;Электроника&lt;/div&gt;&lt;div&gt;Питание&lt;/div&gt;&lt;div&gt;Мебель&lt;/div&gt;&lt;div&gt;Зоотовары&lt;/div&gt;" style="text;strokeColor=none;fillColor=none;align=left;verticalAlign=top;spacingLeft=4;spacingRight=4;overflow=hidden;rotatable=0;points=[[0,0.5],[1,0.5]];portConstraint=eastwest;whiteSpace=wrap;html=1;" parent="x2ZW6m5DBQwnr-81MUE0-20" vertex="1">
          <mxGeometry y="40" width="160" height="110" as="geometry" />
        </mxCell>
        <mxCell id="x2ZW6m5DBQwnr-81MUE0-25" value="Address" style="swimlane;fontStyle=1;align=center;verticalAlign=top;childLayout=stackLayout;horizontal=1;startSize=26;horizontalStack=0;resizeParent=1;resizeParentMax=0;resizeLast=0;collapsible=1;marginBottom=0;whiteSpace=wrap;html=1;" parent="1" vertex="1">
          <mxGeometry x="1050" y="120" width="520" height="260" as="geometry" />
        </mxCell>
        <mxCell id="x2ZW6m5DBQwnr-81MUE0-26" value="-_index: int&lt;div&gt;-_country: string&lt;/div&gt;&lt;div&gt;-_city: string&lt;/div&gt;&lt;div&gt;-_street: string&lt;/div&gt;&lt;div&gt;-_building: string&lt;/div&gt;&lt;div&gt;-_apartment: string&lt;/div&gt;&lt;div&gt;+Index: int&lt;/div&gt;&lt;div&gt;+Country: string&lt;/div&gt;&lt;div&gt;+City: string&lt;/div&gt;&lt;div&gt;+Street: string&lt;/div&gt;&lt;div&gt;+Building: string&lt;/div&gt;&lt;div&gt;+Apartment: string&lt;/div&gt;" style="text;strokeColor=none;fillColor=none;align=left;verticalAlign=top;spacingLeft=4;spacingRight=4;overflow=hidden;rotatable=0;points=[[0,0.5],[1,0.5]];portConstraint=eastwest;whiteSpace=wrap;html=1;" parent="x2ZW6m5DBQwnr-81MUE0-25" vertex="1">
          <mxGeometry y="26" width="520" height="184" as="geometry" />
        </mxCell>
        <mxCell id="x2ZW6m5DBQwnr-81MUE0-27" value="" style="line;strokeWidth=1;fillColor=none;align=left;verticalAlign=middle;spacingTop=-1;spacingLeft=3;spacingRight=3;rotatable=0;labelPosition=right;points=[];portConstraint=eastwest;strokeColor=inherit;" parent="x2ZW6m5DBQwnr-81MUE0-25" vertex="1">
          <mxGeometry y="210" width="520" height="8" as="geometry" />
        </mxCell>
        <mxCell id="x2ZW6m5DBQwnr-81MUE0-28" value="+Address()&lt;div&gt;+Address(index: int, country: string, city: string, street: string, building: string, apartment: string)&lt;/div&gt;" style="text;strokeColor=none;fillColor=none;align=left;verticalAlign=top;spacingLeft=4;spacingRight=4;overflow=hidden;rotatable=0;points=[[0,0.5],[1,0.5]];portConstraint=eastwest;whiteSpace=wrap;html=1;" parent="x2ZW6m5DBQwnr-81MUE0-25" vertex="1">
          <mxGeometry y="218" width="520" height="42" as="geometry" />
        </mxCell>
        <mxCell id="x2ZW6m5DBQwnr-81MUE0-30" value="" style="endArrow=diamondThin;endFill=1;endSize=24;html=1;rounded=0;entryX=0.5;entryY=0;entryDx=0;entryDy=0;exitX=0.446;exitY=1.074;exitDx=0;exitDy=0;exitPerimeter=0;" parent="1" target="gDB7nwy7ESsKub3q5WBZ-10" edge="1" source="x2ZW6m5DBQwnr-81MUE0-28">
          <mxGeometry width="160" relative="1" as="geometry">
            <mxPoint x="1290" y="621" as="sourcePoint" />
            <mxPoint x="1410" y="659" as="targetPoint" />
          </mxGeometry>
        </mxCell>
        <mxCell id="x2ZW6m5DBQwnr-81MUE0-31" value="1" style="text;html=1;align=center;verticalAlign=middle;resizable=0;points=[];autosize=1;strokeColor=none;fillColor=none;" parent="1" vertex="1">
          <mxGeometry x="1291" y="669" width="30" height="30" as="geometry" />
        </mxCell>
        <mxCell id="x2ZW6m5DBQwnr-81MUE0-32" value="1" style="text;html=1;align=center;verticalAlign=middle;resizable=0;points=[];autosize=1;strokeColor=none;fillColor=none;" parent="1" vertex="1">
          <mxGeometry x="1275" y="380" width="30" height="30" as="geometry" />
        </mxCell>
        <mxCell id="x2ZW6m5DBQwnr-81MUE0-33" value="Store" style="swimlane;fontStyle=1;align=center;verticalAlign=top;childLayout=stackLayout;horizontal=1;startSize=26;horizontalStack=0;resizeParent=1;resizeParentMax=0;resizeLast=0;collapsible=1;marginBottom=0;whiteSpace=wrap;html=1;" parent="1" vertex="1">
          <mxGeometry x="700" y="714" width="170" height="124" as="geometry" />
        </mxCell>
        <mxCell id="x2ZW6m5DBQwnr-81MUE0-34" value="-_items: List&amp;lt;Item&amp;gt;&lt;div&gt;-_customers: List&amp;lt;Customer&amp;gt;&lt;/div&gt;&lt;div&gt;+Items: List&amp;lt;Item&amp;gt;&lt;/div&gt;&lt;div&gt;+Customers: List&amp;lt;Customer&amp;gt;&lt;/div&gt;" style="text;strokeColor=none;fillColor=none;align=left;verticalAlign=top;spacingLeft=4;spacingRight=4;overflow=hidden;rotatable=0;points=[[0,0.5],[1,0.5]];portConstraint=eastwest;whiteSpace=wrap;html=1;" parent="x2ZW6m5DBQwnr-81MUE0-33" vertex="1">
          <mxGeometry y="26" width="170" height="64" as="geometry" />
        </mxCell>
        <mxCell id="x2ZW6m5DBQwnr-81MUE0-35" value="" style="line;strokeWidth=1;fillColor=none;align=left;verticalAlign=middle;spacingTop=-1;spacingLeft=3;spacingRight=3;rotatable=0;labelPosition=right;points=[];portConstraint=eastwest;strokeColor=inherit;" parent="x2ZW6m5DBQwnr-81MUE0-33" vertex="1">
          <mxGeometry y="90" width="170" height="8" as="geometry" />
        </mxCell>
        <mxCell id="x2ZW6m5DBQwnr-81MUE0-36" value="+Store()" style="text;strokeColor=none;fillColor=none;align=left;verticalAlign=top;spacingLeft=4;spacingRight=4;overflow=hidden;rotatable=0;points=[[0,0.5],[1,0.5]];portConstraint=eastwest;whiteSpace=wrap;html=1;" parent="x2ZW6m5DBQwnr-81MUE0-33" vertex="1">
          <mxGeometry y="98" width="170" height="26" as="geometry" />
        </mxCell>
        <mxCell id="x2ZW6m5DBQwnr-81MUE0-37" value="" style="endArrow=diamondThin;endFill=1;endSize=24;html=1;rounded=0;entryX=0;entryY=0.5;entryDx=0;entryDy=0;exitX=1;exitY=0.5;exitDx=0;exitDy=0;" parent="1" source="gDB7nwy7ESsKub3q5WBZ-2" target="x2ZW6m5DBQwnr-81MUE0-34" edge="1">
          <mxGeometry width="160" relative="1" as="geometry">
            <mxPoint x="690" y="879" as="sourcePoint" />
            <mxPoint x="850" y="879" as="targetPoint" />
          </mxGeometry>
        </mxCell>
        <mxCell id="x2ZW6m5DBQwnr-81MUE0-38" value="" style="endArrow=diamondThin;endFill=1;endSize=24;html=1;rounded=0;entryX=1;entryY=0.5;entryDx=0;entryDy=0;exitX=0;exitY=0.5;exitDx=0;exitDy=0;" parent="1" source="gDB7nwy7ESsKub3q5WBZ-11" target="x2ZW6m5DBQwnr-81MUE0-34" edge="1">
          <mxGeometry width="160" relative="1" as="geometry">
            <mxPoint x="770" y="909" as="sourcePoint" />
            <mxPoint x="930" y="909" as="targetPoint" />
          </mxGeometry>
        </mxCell>
        <mxCell id="x2ZW6m5DBQwnr-81MUE0-39" value="1" style="text;html=1;align=center;verticalAlign=middle;resizable=0;points=[];autosize=1;strokeColor=none;fillColor=none;" parent="1" vertex="1">
          <mxGeometry x="670" y="739" width="30" height="30" as="geometry" />
        </mxCell>
        <mxCell id="x2ZW6m5DBQwnr-81MUE0-40" value="n" style="text;html=1;align=center;verticalAlign=middle;resizable=0;points=[];autosize=1;strokeColor=none;fillColor=none;" parent="1" vertex="1">
          <mxGeometry x="610" y="739" width="30" height="30" as="geometry" />
        </mxCell>
        <mxCell id="x2ZW6m5DBQwnr-81MUE0-41" value="1" style="text;html=1;align=center;verticalAlign=middle;resizable=0;points=[];autosize=1;strokeColor=none;fillColor=none;" parent="1" vertex="1">
          <mxGeometry x="870" y="739" width="30" height="30" as="geometry" />
        </mxCell>
        <mxCell id="x2ZW6m5DBQwnr-81MUE0-42" value="n" style="text;html=1;align=center;verticalAlign=middle;resizable=0;points=[];autosize=1;strokeColor=none;fillColor=none;" parent="1" vertex="1">
          <mxGeometry x="910" y="739" width="30" height="30" as="geometry" />
        </mxCell>
        <mxCell id="x2ZW6m5DBQwnr-81MUE0-43" value="" style="endArrow=diamondThin;endFill=1;endSize=24;html=1;rounded=0;entryX=0.5;entryY=0;entryDx=0;entryDy=0;" parent="1" target="gDB7nwy7ESsKub3q5WBZ-1" edge="1">
          <mxGeometry width="160" relative="1" as="geometry">
            <mxPoint x="365" y="609" as="sourcePoint" />
            <mxPoint x="450" y="639" as="targetPoint" />
          </mxGeometry>
        </mxCell>
        <mxCell id="x2ZW6m5DBQwnr-81MUE0-44" value="1" style="text;html=1;align=center;verticalAlign=middle;resizable=0;points=[];autosize=1;strokeColor=none;fillColor=none;" parent="1" vertex="1">
          <mxGeometry x="361" y="631" width="30" height="30" as="geometry" />
        </mxCell>
        <mxCell id="x2ZW6m5DBQwnr-81MUE0-45" value="1" style="text;html=1;align=center;verticalAlign=middle;resizable=0;points=[];autosize=1;strokeColor=none;fillColor=none;" parent="1" vertex="1">
          <mxGeometry x="359" y="604" width="30" height="30" as="geometry" />
        </mxCell>
        <mxCell id="x2ZW6m5DBQwnr-81MUE0-46" value="&amp;lt;&amp;lt;enumeration&amp;gt;&amp;gt;&lt;div&gt;InfoOfItems&lt;/div&gt;" style="swimlane;fontStyle=1;align=center;verticalAlign=top;childLayout=stackLayout;horizontal=1;startSize=40;horizontalStack=0;resizeParent=1;resizeParentMax=0;resizeLast=0;collapsible=1;marginBottom=0;whiteSpace=wrap;html=1;" parent="1" vertex="1">
          <mxGeometry x="183" y="1081" width="160" height="80" as="geometry" />
        </mxCell>
        <mxCell id="x2ZW6m5DBQwnr-81MUE0-47" value="Качественный&lt;div&gt;Некачественный&lt;/div&gt;" style="text;strokeColor=none;fillColor=none;align=left;verticalAlign=top;spacingLeft=4;spacingRight=4;overflow=hidden;rotatable=0;points=[[0,0.5],[1,0.5]];portConstraint=eastwest;whiteSpace=wrap;html=1;" parent="x2ZW6m5DBQwnr-81MUE0-46" vertex="1">
          <mxGeometry y="40" width="160" height="40" as="geometry" />
        </mxCell>
        <mxCell id="x2ZW6m5DBQwnr-81MUE0-51" value="&amp;lt;&amp;lt;enumeration&amp;gt;&amp;gt;&lt;div&gt;NamesForAutoParts&lt;/div&gt;" style="swimlane;fontStyle=1;align=center;verticalAlign=top;childLayout=stackLayout;horizontal=1;startSize=40;horizontalStack=0;resizeParent=1;resizeParentMax=0;resizeLast=0;collapsible=1;marginBottom=0;whiteSpace=wrap;html=1;" parent="1" vertex="1">
          <mxGeometry x="10" y="1081" width="160" height="80" as="geometry" />
        </mxCell>
        <mxCell id="x2ZW6m5DBQwnr-81MUE0-52" value="Аккумулятор&lt;div&gt;Шина&lt;/div&gt;" style="text;strokeColor=none;fillColor=none;align=left;verticalAlign=top;spacingLeft=4;spacingRight=4;overflow=hidden;rotatable=0;points=[[0,0.5],[1,0.5]];portConstraint=eastwest;whiteSpace=wrap;html=1;" parent="x2ZW6m5DBQwnr-81MUE0-51" vertex="1">
          <mxGeometry y="40" width="160" height="40" as="geometry" />
        </mxCell>
        <mxCell id="x2ZW6m5DBQwnr-81MUE0-57" value="&amp;lt;&amp;lt;enumeration&amp;gt;&amp;gt;&lt;div&gt;NamesForChemistry&lt;/div&gt;" style="swimlane;fontStyle=1;align=center;verticalAlign=top;childLayout=stackLayout;horizontal=1;startSize=40;horizontalStack=0;resizeParent=1;resizeParentMax=0;resizeLast=0;collapsible=1;marginBottom=0;whiteSpace=wrap;html=1;" parent="1" vertex="1">
          <mxGeometry x="360" y="1081" width="160" height="90" as="geometry" />
        </mxCell>
        <mxCell id="x2ZW6m5DBQwnr-81MUE0-58" value="Мыло&lt;div&gt;Шампунь&lt;/div&gt;&lt;div&gt;Гель&lt;/div&gt;" style="text;strokeColor=none;fillColor=none;align=left;verticalAlign=top;spacingLeft=4;spacingRight=4;overflow=hidden;rotatable=0;points=[[0,0.5],[1,0.5]];portConstraint=eastwest;whiteSpace=wrap;html=1;" parent="x2ZW6m5DBQwnr-81MUE0-57" vertex="1">
          <mxGeometry y="40" width="160" height="50" as="geometry" />
        </mxCell>
        <mxCell id="x2ZW6m5DBQwnr-81MUE0-59" value="&amp;lt;&amp;lt;enumeration&amp;gt;&amp;gt;&lt;div&gt;NamesForClothes&lt;/div&gt;" style="swimlane;fontStyle=1;align=center;verticalAlign=top;childLayout=stackLayout;horizontal=1;startSize=40;horizontalStack=0;resizeParent=1;resizeParentMax=0;resizeLast=0;collapsible=1;marginBottom=0;whiteSpace=wrap;html=1;" parent="1" vertex="1">
          <mxGeometry x="10" y="1181" width="160" height="110" as="geometry" />
        </mxCell>
        <mxCell id="x2ZW6m5DBQwnr-81MUE0-60" value="Рубашка&lt;div&gt;Футболка&lt;br&gt;&lt;div&gt;Брюки&lt;/div&gt;&lt;div&gt;Джинсы&lt;/div&gt;&lt;/div&gt;" style="text;strokeColor=none;fillColor=none;align=left;verticalAlign=top;spacingLeft=4;spacingRight=4;overflow=hidden;rotatable=0;points=[[0,0.5],[1,0.5]];portConstraint=eastwest;whiteSpace=wrap;html=1;" parent="x2ZW6m5DBQwnr-81MUE0-59" vertex="1">
          <mxGeometry y="40" width="160" height="70" as="geometry" />
        </mxCell>
        <mxCell id="x2ZW6m5DBQwnr-81MUE0-61" value="&amp;lt;&amp;lt;enumeration&amp;gt;&amp;gt;&lt;div&gt;NamesForElectronics&lt;/div&gt;" style="swimlane;fontStyle=1;align=center;verticalAlign=top;childLayout=stackLayout;horizontal=1;startSize=40;horizontalStack=0;resizeParent=1;resizeParentMax=0;resizeLast=0;collapsible=1;marginBottom=0;whiteSpace=wrap;html=1;" parent="1" vertex="1">
          <mxGeometry x="183" y="1181" width="160" height="110" as="geometry" />
        </mxCell>
        <mxCell id="x2ZW6m5DBQwnr-81MUE0-62" value="Ноутбук&lt;div&gt;Микрофон&lt;/div&gt;&lt;div&gt;Планшет&lt;/div&gt;&lt;div&gt;Телефон&lt;/div&gt;" style="text;strokeColor=none;fillColor=none;align=left;verticalAlign=top;spacingLeft=4;spacingRight=4;overflow=hidden;rotatable=0;points=[[0,0.5],[1,0.5]];portConstraint=eastwest;whiteSpace=wrap;html=1;" parent="x2ZW6m5DBQwnr-81MUE0-61" vertex="1">
          <mxGeometry y="40" width="160" height="70" as="geometry" />
        </mxCell>
        <mxCell id="x2ZW6m5DBQwnr-81MUE0-67" value="&amp;lt;&amp;lt;enumeration&amp;gt;&amp;gt;&lt;div&gt;NamesForFood&lt;/div&gt;" style="swimlane;fontStyle=1;align=center;verticalAlign=top;childLayout=stackLayout;horizontal=1;startSize=40;horizontalStack=0;resizeParent=1;resizeParentMax=0;resizeLast=0;collapsible=1;marginBottom=0;whiteSpace=wrap;html=1;" parent="1" vertex="1">
          <mxGeometry x="360" y="1181" width="160" height="110" as="geometry" />
        </mxCell>
        <mxCell id="x2ZW6m5DBQwnr-81MUE0-68" value="Огурец&lt;div&gt;Помидор&lt;/div&gt;&lt;div&gt;Тыква&lt;/div&gt;&lt;div&gt;Кукуруза&lt;/div&gt;" style="text;strokeColor=none;fillColor=none;align=left;verticalAlign=top;spacingLeft=4;spacingRight=4;overflow=hidden;rotatable=0;points=[[0,0.5],[1,0.5]];portConstraint=eastwest;whiteSpace=wrap;html=1;" parent="x2ZW6m5DBQwnr-81MUE0-67" vertex="1">
          <mxGeometry y="40" width="160" height="70" as="geometry" />
        </mxCell>
        <mxCell id="x2ZW6m5DBQwnr-81MUE0-69" value="&amp;lt;&amp;lt;enumeration&amp;gt;&amp;gt;&lt;div&gt;NamesForFurniture&lt;/div&gt;" style="swimlane;fontStyle=1;align=center;verticalAlign=top;childLayout=stackLayout;horizontal=1;startSize=40;horizontalStack=0;resizeParent=1;resizeParentMax=0;resizeLast=0;collapsible=1;marginBottom=0;whiteSpace=wrap;html=1;" parent="1" vertex="1">
          <mxGeometry x="540" y="1081" width="160" height="110" as="geometry" />
        </mxCell>
        <mxCell id="x2ZW6m5DBQwnr-81MUE0-70" value="Матрас&lt;div&gt;Кресло&lt;/div&gt;&lt;div&gt;Диван&lt;/div&gt;&lt;div&gt;Стол&lt;/div&gt;" style="text;strokeColor=none;fillColor=none;align=left;verticalAlign=top;spacingLeft=4;spacingRight=4;overflow=hidden;rotatable=0;points=[[0,0.5],[1,0.5]];portConstraint=eastwest;whiteSpace=wrap;html=1;" parent="x2ZW6m5DBQwnr-81MUE0-69" vertex="1">
          <mxGeometry y="40" width="160" height="70" as="geometry" />
        </mxCell>
        <mxCell id="x2ZW6m5DBQwnr-81MUE0-71" value="&amp;lt;&amp;lt;enumeration&amp;gt;&amp;gt;&lt;div&gt;NamesForPetSupplies&lt;/div&gt;" style="swimlane;fontStyle=1;align=center;verticalAlign=top;childLayout=stackLayout;horizontal=1;startSize=40;horizontalStack=0;resizeParent=1;resizeParentMax=0;resizeLast=0;collapsible=1;marginBottom=0;whiteSpace=wrap;html=1;" parent="1" vertex="1">
          <mxGeometry x="540" y="1201" width="160" height="90" as="geometry" />
        </mxCell>
        <mxCell id="x2ZW6m5DBQwnr-81MUE0-72" value="Корм&lt;div&gt;Игрушки&lt;/div&gt;&lt;div&gt;Когтеточка&lt;/div&gt;" style="text;strokeColor=none;fillColor=none;align=left;verticalAlign=top;spacingLeft=4;spacingRight=4;overflow=hidden;rotatable=0;points=[[0,0.5],[1,0.5]];portConstraint=eastwest;whiteSpace=wrap;html=1;" parent="x2ZW6m5DBQwnr-81MUE0-71" vertex="1">
          <mxGeometry y="40" width="160" height="50" as="geometry" />
        </mxCell>
        <mxCell id="x2ZW6m5DBQwnr-81MUE0-80" value="&amp;lt;&amp;lt;enumeration&amp;gt;&amp;gt;&lt;div&gt;NamesOfCustomers&lt;/div&gt;" style="swimlane;fontStyle=1;align=center;verticalAlign=top;childLayout=stackLayout;horizontal=1;startSize=38;horizontalStack=0;resizeParent=1;resizeParentMax=0;resizeLast=0;collapsible=1;marginBottom=0;whiteSpace=wrap;html=1;" parent="1" vertex="1">
          <mxGeometry x="1046" y="1089" width="160" height="190" as="geometry" />
        </mxCell>
        <mxCell id="x2ZW6m5DBQwnr-81MUE0-81" value="Валентин&lt;div&gt;Дмитрий&lt;/div&gt;&lt;div&gt;Владимир&lt;/div&gt;&lt;div&gt;Владислав&lt;/div&gt;&lt;div&gt;Евгений&lt;/div&gt;&lt;div&gt;Геннадий&lt;/div&gt;&lt;div&gt;Александр&lt;/div&gt;&lt;div&gt;Алексей&lt;/div&gt;&lt;div&gt;Константин&lt;/div&gt;&lt;div&gt;Иван&lt;/div&gt;" style="text;strokeColor=none;fillColor=none;align=left;verticalAlign=top;spacingLeft=4;spacingRight=4;overflow=hidden;rotatable=0;points=[[0,0.5],[1,0.5]];portConstraint=eastwest;whiteSpace=wrap;html=1;" parent="x2ZW6m5DBQwnr-81MUE0-80" vertex="1">
          <mxGeometry y="38" width="160" height="152" as="geometry" />
        </mxCell>
        <mxCell id="x2ZW6m5DBQwnr-81MUE0-84" value="&amp;lt;&amp;lt;enumeration&amp;gt;&amp;gt;&lt;div&gt;PatronymicsOfCustomers&lt;/div&gt;" style="swimlane;fontStyle=1;align=center;verticalAlign=top;childLayout=stackLayout;horizontal=1;startSize=34;horizontalStack=0;resizeParent=1;resizeParentMax=0;resizeLast=0;collapsible=1;marginBottom=0;whiteSpace=wrap;html=1;" parent="1" vertex="1">
          <mxGeometry x="1226" y="1089" width="160" height="190" as="geometry" />
        </mxCell>
        <mxCell id="x2ZW6m5DBQwnr-81MUE0-85" value="Макарович&lt;div&gt;Георгиевич&lt;/div&gt;&lt;div&gt;Юлианович&lt;/div&gt;&lt;div&gt;Семенович&lt;/div&gt;&lt;div&gt;Кириллович&lt;/div&gt;&lt;div&gt;Михаилович&lt;/div&gt;&lt;div&gt;Климентович&lt;/div&gt;&lt;div&gt;Юрьевич&lt;/div&gt;&lt;div&gt;Власович&lt;/div&gt;&lt;div&gt;Филиппович&lt;/div&gt;" style="text;strokeColor=none;fillColor=none;align=left;verticalAlign=top;spacingLeft=4;spacingRight=4;overflow=hidden;rotatable=0;points=[[0,0.5],[1,0.5]];portConstraint=eastwest;whiteSpace=wrap;html=1;" parent="x2ZW6m5DBQwnr-81MUE0-84" vertex="1">
          <mxGeometry y="34" width="160" height="156" as="geometry" />
        </mxCell>
        <mxCell id="x2ZW6m5DBQwnr-81MUE0-86" value="&amp;lt;&amp;lt;enumeration&amp;gt;&amp;gt;&lt;div&gt;SecondNamesOfCustomers&lt;/div&gt;" style="swimlane;fontStyle=1;align=center;verticalAlign=top;childLayout=stackLayout;horizontal=1;startSize=38;horizontalStack=0;resizeParent=1;resizeParentMax=0;resizeLast=0;collapsible=1;marginBottom=0;whiteSpace=wrap;html=1;" parent="1" vertex="1">
          <mxGeometry x="1406" y="1089" width="160" height="190" as="geometry" />
        </mxCell>
        <mxCell id="x2ZW6m5DBQwnr-81MUE0-87" value="Куклев&lt;div&gt;Шихранов&lt;/div&gt;&lt;div&gt;Ясавеев&lt;/div&gt;&lt;div&gt;Кулумбаев&lt;/div&gt;&lt;div&gt;Чемерис&lt;/div&gt;&lt;div&gt;Бореев&lt;/div&gt;&lt;div&gt;Палванов&lt;/div&gt;&lt;div&gt;Умберг&lt;/div&gt;&lt;div&gt;Кобонов&lt;/div&gt;&lt;div&gt;Максимушкин&lt;/div&gt;" style="text;strokeColor=none;fillColor=none;align=left;verticalAlign=top;spacingLeft=4;spacingRight=4;overflow=hidden;rotatable=0;points=[[0,0.5],[1,0.5]];portConstraint=eastwest;whiteSpace=wrap;html=1;" parent="x2ZW6m5DBQwnr-81MUE0-86" vertex="1">
          <mxGeometry y="38" width="160" height="152" as="geometry" />
        </mxCell>
        <mxCell id="x2ZW6m5DBQwnr-81MUE0-90" value="" style="endArrow=open;endSize=12;dashed=1;html=1;rounded=0;entryX=0.5;entryY=0;entryDx=0;entryDy=0;exitX=0.745;exitY=1.065;exitDx=0;exitDy=0;exitPerimeter=0;" parent="1" source="gDB7nwy7ESsKub3q5WBZ-13" target="x2ZW6m5DBQwnr-81MUE0-86" edge="1">
          <mxGeometry width="160" relative="1" as="geometry">
            <mxPoint x="1440" y="899" as="sourcePoint" />
            <mxPoint x="1360" y="1059" as="targetPoint" />
            <mxPoint as="offset" />
          </mxGeometry>
        </mxCell>
        <mxCell id="4exrZDZuvI7Ryyr3zXt3-1" value="&amp;lt;&amp;lt;enumerator&amp;gt;&amp;gt;&lt;div&gt;OrderStatus&lt;/div&gt;" style="swimlane;fontStyle=1;align=center;verticalAlign=top;childLayout=stackLayout;horizontal=1;startSize=40;horizontalStack=0;resizeParent=1;resizeParentMax=0;resizeLast=0;collapsible=1;marginBottom=0;whiteSpace=wrap;html=1;" parent="1" vertex="1">
          <mxGeometry x="270" y="269" width="160" height="150" as="geometry" />
        </mxCell>
        <mxCell id="4exrZDZuvI7Ryyr3zXt3-2" value="New&lt;div&gt;Processing&lt;/div&gt;&lt;div&gt;Assembly&lt;/div&gt;&lt;div&gt;Sent&lt;/div&gt;&lt;div&gt;Delivered&lt;/div&gt;&lt;div&gt;Returned&lt;/div&gt;&lt;div&gt;Abandonet&lt;/div&gt;" style="text;strokeColor=none;fillColor=none;align=left;verticalAlign=top;spacingLeft=4;spacingRight=4;overflow=hidden;rotatable=0;points=[[0,0.5],[1,0.5]];portConstraint=eastwest;whiteSpace=wrap;html=1;" parent="4exrZDZuvI7Ryyr3zXt3-1" vertex="1">
          <mxGeometry y="40" width="160" height="110" as="geometry" />
        </mxCell>
        <mxCell id="4exrZDZuvI7Ryyr3zXt3-5" value="Order" style="swimlane;fontStyle=1;align=center;verticalAlign=top;childLayout=stackLayout;horizontal=1;startSize=26;horizontalStack=0;resizeParent=1;resizeParentMax=0;resizeLast=0;collapsible=1;marginBottom=0;whiteSpace=wrap;html=1;" parent="1" vertex="1">
          <mxGeometry x="570" y="141" width="430" height="250" as="geometry" />
        </mxCell>
        <mxCell id="4exrZDZuvI7Ryyr3zXt3-6" value="&lt;u&gt;-_counter: int&lt;/u&gt;&lt;div&gt;+OrderStatus: OrderStatus&lt;/div&gt;&lt;div&gt;+Address: Address&lt;/div&gt;&lt;div&gt;-_id: int&lt;/div&gt;&lt;div&gt;-_date: string&lt;/div&gt;&lt;div&gt;-_items: List&amp;lt;Item&amp;gt;&lt;/div&gt;&lt;div&gt;-_totalCost: double&lt;/div&gt;&lt;div&gt;-flagCostChange: bool&lt;/div&gt;&lt;div&gt;+ID: int&lt;/div&gt;&lt;div&gt;+Date: string&lt;/div&gt;&lt;div&gt;+Items: List&amp;lt;Item&amp;gt;&lt;/div&gt;&lt;div&gt;+TotalCost: double&lt;/div&gt;" style="text;strokeColor=none;fillColor=none;align=left;verticalAlign=top;spacingLeft=4;spacingRight=4;overflow=hidden;rotatable=0;points=[[0,0.5],[1,0.5]];portConstraint=eastwest;whiteSpace=wrap;html=1;" parent="4exrZDZuvI7Ryyr3zXt3-5" vertex="1">
          <mxGeometry y="26" width="430" height="174" as="geometry" />
        </mxCell>
        <mxCell id="4exrZDZuvI7Ryyr3zXt3-7" value="" style="line;strokeWidth=1;fillColor=none;align=left;verticalAlign=middle;spacingTop=-1;spacingLeft=3;spacingRight=3;rotatable=0;labelPosition=right;points=[];portConstraint=eastwest;strokeColor=inherit;" parent="4exrZDZuvI7Ryyr3zXt3-5" vertex="1">
          <mxGeometry y="200" width="430" height="8" as="geometry" />
        </mxCell>
        <mxCell id="4exrZDZuvI7Ryyr3zXt3-8" value="+Order(index: int, country: string, city: string, street: string, building: string, apartment: string, date: string, items: List&amp;lt;Item&amp;gt;, orderStatus: OrderStatus)" style="text;strokeColor=none;fillColor=none;align=left;verticalAlign=top;spacingLeft=4;spacingRight=4;overflow=hidden;rotatable=0;points=[[0,0.5],[1,0.5]];portConstraint=eastwest;whiteSpace=wrap;html=1;" parent="4exrZDZuvI7Ryyr3zXt3-5" vertex="1">
          <mxGeometry y="208" width="430" height="42" as="geometry" />
        </mxCell>
        <mxCell id="4exrZDZuvI7Ryyr3zXt3-9" value="" style="endArrow=diamondThin;endFill=1;endSize=24;html=1;rounded=0;entryX=0;entryY=0.5;entryDx=0;entryDy=0;exitX=1;exitY=0.5;exitDx=0;exitDy=0;" parent="1" edge="1">
          <mxGeometry width="160" relative="1" as="geometry">
            <mxPoint x="430" y="360" as="sourcePoint" />
            <mxPoint x="570" y="359" as="targetPoint" />
          </mxGeometry>
        </mxCell>
        <mxCell id="4exrZDZuvI7Ryyr3zXt3-10" value="1" style="text;html=1;align=center;verticalAlign=middle;resizable=0;points=[];autosize=1;strokeColor=none;fillColor=none;" parent="1" vertex="1">
          <mxGeometry x="540" y="329" width="30" height="30" as="geometry" />
        </mxCell>
        <mxCell id="4exrZDZuvI7Ryyr3zXt3-11" value="1" style="text;html=1;align=center;verticalAlign=middle;resizable=0;points=[];autosize=1;strokeColor=none;fillColor=none;" parent="1" vertex="1">
          <mxGeometry x="430" y="329" width="30" height="30" as="geometry" />
        </mxCell>
        <mxCell id="4exrZDZuvI7Ryyr3zXt3-12" value="" style="endArrow=diamondThin;endFill=0;endSize=24;html=1;rounded=0;entryX=0.114;entryY=0;entryDx=0;entryDy=0;entryPerimeter=0;exitX=0.9;exitY=1.06;exitDx=0;exitDy=0;exitPerimeter=0;" parent="1" source="4exrZDZuvI7Ryyr3zXt3-8" target="gDB7nwy7ESsKub3q5WBZ-10" edge="1">
          <mxGeometry width="160" relative="1" as="geometry">
            <mxPoint x="990" y="569" as="sourcePoint" />
            <mxPoint x="880" y="669" as="targetPoint" />
            <Array as="points" />
          </mxGeometry>
        </mxCell>
        <mxCell id="4exrZDZuvI7Ryyr3zXt3-13" value="1" style="text;html=1;align=center;verticalAlign=middle;resizable=0;points=[];autosize=1;strokeColor=none;fillColor=none;" parent="1" vertex="1">
          <mxGeometry x="1016" y="669" width="30" height="30" as="geometry" />
        </mxCell>
        <mxCell id="4exrZDZuvI7Ryyr3zXt3-14" value="n" style="text;html=1;align=center;verticalAlign=middle;resizable=0;points=[];autosize=1;strokeColor=none;fillColor=none;" parent="1" vertex="1">
          <mxGeometry x="930" y="391" width="30" height="30" as="geometry" />
        </mxCell>
        <mxCell id="4exrZDZuvI7Ryyr3zXt3-20" value="Cart" style="swimlane;fontStyle=1;align=center;verticalAlign=top;childLayout=stackLayout;horizontal=1;startSize=26;horizontalStack=0;resizeParent=1;resizeParentMax=0;resizeLast=0;collapsible=1;marginBottom=0;whiteSpace=wrap;html=1;" parent="1" vertex="1">
          <mxGeometry x="700" y="529" width="160" height="160" as="geometry" />
        </mxCell>
        <mxCell id="4exrZDZuvI7Ryyr3zXt3-21" value="-_items: List&amp;lt;Item&amp;gt;&lt;div&gt;-_amount: double&lt;/div&gt;&lt;div&gt;-flagAmountChange: bool&lt;/div&gt;&lt;div&gt;+Items: List&amp;lt;Item&amp;gt;&lt;/div&gt;&lt;div&gt;+Amount: double&lt;/div&gt;" style="text;strokeColor=none;fillColor=none;align=left;verticalAlign=top;spacingLeft=4;spacingRight=4;overflow=hidden;rotatable=0;points=[[0,0.5],[1,0.5]];portConstraint=eastwest;whiteSpace=wrap;html=1;" parent="4exrZDZuvI7Ryyr3zXt3-20" vertex="1">
          <mxGeometry y="26" width="160" height="84" as="geometry" />
        </mxCell>
        <mxCell id="4exrZDZuvI7Ryyr3zXt3-22" value="" style="line;strokeWidth=1;fillColor=none;align=left;verticalAlign=middle;spacingTop=-1;spacingLeft=3;spacingRight=3;rotatable=0;labelPosition=right;points=[];portConstraint=eastwest;strokeColor=inherit;" parent="4exrZDZuvI7Ryyr3zXt3-20" vertex="1">
          <mxGeometry y="110" width="160" height="8" as="geometry" />
        </mxCell>
        <mxCell id="4exrZDZuvI7Ryyr3zXt3-23" value="+Cart()&lt;div&gt;+Cart(items: List&amp;lt;Item&amp;gt;&lt;/div&gt;" style="text;strokeColor=none;fillColor=none;align=left;verticalAlign=top;spacingLeft=4;spacingRight=4;overflow=hidden;rotatable=0;points=[[0,0.5],[1,0.5]];portConstraint=eastwest;whiteSpace=wrap;html=1;" parent="4exrZDZuvI7Ryyr3zXt3-20" vertex="1">
          <mxGeometry y="118" width="160" height="42" as="geometry" />
        </mxCell>
        <mxCell id="4exrZDZuvI7Ryyr3zXt3-26" value="" style="endArrow=diamondThin;endFill=1;endSize=24;html=1;rounded=0;entryX=0;entryY=0;entryDx=0;entryDy=0;exitX=1.012;exitY=0.625;exitDx=0;exitDy=0;exitPerimeter=0;" parent="1" source="4exrZDZuvI7Ryyr3zXt3-21" target="gDB7nwy7ESsKub3q5WBZ-10" edge="1">
          <mxGeometry width="160" relative="1" as="geometry">
            <mxPoint x="880" y="609" as="sourcePoint" />
            <mxPoint x="1040" y="609" as="targetPoint" />
          </mxGeometry>
        </mxCell>
        <mxCell id="4exrZDZuvI7Ryyr3zXt3-27" value="1" style="text;html=1;align=center;verticalAlign=middle;resizable=0;points=[];autosize=1;strokeColor=none;fillColor=none;" parent="1" vertex="1">
          <mxGeometry x="860" y="589" width="30" height="30" as="geometry" />
        </mxCell>
        <mxCell id="4exrZDZuvI7Ryyr3zXt3-30" value="1" style="text;html=1;align=center;verticalAlign=middle;resizable=0;points=[];autosize=1;strokeColor=none;fillColor=none;" parent="1" vertex="1">
          <mxGeometry x="930" y="661" width="30" height="30" as="geometry" />
        </mxCell>
        <mxCell id="4exrZDZuvI7Ryyr3zXt3-31" value="" style="endArrow=diamondThin;endFill=0;endSize=24;html=1;rounded=0;entryX=-0.022;entryY=0.61;entryDx=0;entryDy=0;entryPerimeter=0;exitX=1;exitY=0;exitDx=0;exitDy=0;" parent="1" source="gDB7nwy7ESsKub3q5WBZ-1" target="4exrZDZuvI7Ryyr3zXt3-21" edge="1">
          <mxGeometry width="160" relative="1" as="geometry">
            <mxPoint x="570" y="649" as="sourcePoint" />
            <mxPoint x="730" y="649" as="targetPoint" />
          </mxGeometry>
        </mxCell>
        <mxCell id="4exrZDZuvI7Ryyr3zXt3-32" value="n" style="text;html=1;align=center;verticalAlign=middle;resizable=0;points=[];autosize=1;strokeColor=none;fillColor=none;" parent="1" vertex="1">
          <mxGeometry x="600" y="622" width="30" height="30" as="geometry" />
        </mxCell>
        <mxCell id="4exrZDZuvI7Ryyr3zXt3-33" value="1" style="text;html=1;align=center;verticalAlign=middle;resizable=0;points=[];autosize=1;strokeColor=none;fillColor=none;" parent="1" vertex="1">
          <mxGeometry x="670" y="579" width="30" height="30" as="geometry" />
        </mxCell>
        <mxCell id="4exrZDZuvI7Ryyr3zXt3-34" value="" style="endArrow=diamondThin;endFill=1;endSize=24;html=1;rounded=0;entryX=0.076;entryY=1.107;entryDx=0;entryDy=0;entryPerimeter=0;" parent="1" target="4exrZDZuvI7Ryyr3zXt3-8" edge="1">
          <mxGeometry width="160" relative="1" as="geometry">
            <mxPoint x="540" y="649" as="sourcePoint" />
            <mxPoint x="660" y="579" as="targetPoint" />
          </mxGeometry>
        </mxCell>
        <mxCell id="4exrZDZuvI7Ryyr3zXt3-35" value="1" style="text;html=1;align=center;verticalAlign=middle;resizable=0;points=[];autosize=1;strokeColor=none;fillColor=none;" parent="1" vertex="1">
          <mxGeometry x="600" y="391" width="30" height="30" as="geometry" />
        </mxCell>
        <mxCell id="4exrZDZuvI7Ryyr3zXt3-36" value="n" style="text;html=1;align=center;verticalAlign=middle;resizable=0;points=[];autosize=1;strokeColor=none;fillColor=none;" parent="1" vertex="1">
          <mxGeometry x="510" y="619" width="30" height="30" as="geometry" />
        </mxCell>
        <mxCell id="4exrZDZuvI7Ryyr3zXt3-39" value="1" style="text;html=1;align=center;verticalAlign=middle;resizable=0;points=[];autosize=1;strokeColor=none;fillColor=none;" parent="1" vertex="1">
          <mxGeometry x="1110" y="329" width="30" height="30" as="geometry" />
        </mxCell>
        <mxCell id="UiS83PjQYig-AAICUWql-1" value="" style="endArrow=open;endSize=12;dashed=1;html=1;rounded=0;exitX=0.013;exitY=1.051;exitDx=0;exitDy=0;exitPerimeter=0;entryX=0.5;entryY=0;entryDx=0;entryDy=0;" parent="1" source="gDB7nwy7ESsKub3q5WBZ-4" target="x2ZW6m5DBQwnr-81MUE0-51" edge="1">
          <mxGeometry width="160" relative="1" as="geometry">
            <mxPoint x="80" y="979" as="sourcePoint" />
            <mxPoint x="90" y="1079" as="targetPoint" />
          </mxGeometry>
        </mxCell>
        <mxCell id="UiS83PjQYig-AAICUWql-2" value="" style="endArrow=open;endSize=12;dashed=1;html=1;rounded=0;exitX=0.108;exitY=0.992;exitDx=0;exitDy=0;exitPerimeter=0;entryX=0.539;entryY=0.015;entryDx=0;entryDy=0;entryPerimeter=0;" parent="1" source="gDB7nwy7ESsKub3q5WBZ-4" target="x2ZW6m5DBQwnr-81MUE0-59" edge="1">
          <mxGeometry width="160" relative="1" as="geometry">
            <mxPoint x="90" y="989" as="sourcePoint" />
            <mxPoint x="250" y="989" as="targetPoint" />
            <Array as="points">
              <mxPoint x="173" y="1169" />
            </Array>
          </mxGeometry>
        </mxCell>
        <mxCell id="UiS83PjQYig-AAICUWql-3" value="" style="endArrow=open;endSize=12;dashed=1;html=1;rounded=0;exitX=0.196;exitY=1.022;exitDx=0;exitDy=0;exitPerimeter=0;entryX=0.5;entryY=0;entryDx=0;entryDy=0;" parent="1" source="gDB7nwy7ESsKub3q5WBZ-4" target="x2ZW6m5DBQwnr-81MUE0-46" edge="1">
          <mxGeometry width="160" relative="1" as="geometry">
            <mxPoint x="100" y="999" as="sourcePoint" />
            <mxPoint x="260" y="999" as="targetPoint" />
          </mxGeometry>
        </mxCell>
        <mxCell id="UiS83PjQYig-AAICUWql-4" value="" style="endArrow=open;endSize=12;dashed=1;html=1;rounded=0;exitX=0.469;exitY=1.167;exitDx=0;exitDy=0;exitPerimeter=0;entryX=0.554;entryY=-0.002;entryDx=0;entryDy=0;entryPerimeter=0;" parent="1" source="gDB7nwy7ESsKub3q5WBZ-4" target="x2ZW6m5DBQwnr-81MUE0-61" edge="1">
          <mxGeometry width="160" relative="1" as="geometry">
            <mxPoint x="110" y="1009" as="sourcePoint" />
            <mxPoint x="270" y="1009" as="targetPoint" />
            <Array as="points">
              <mxPoint x="350" y="1169" />
            </Array>
          </mxGeometry>
        </mxCell>
        <mxCell id="UiS83PjQYig-AAICUWql-5" value="" style="endArrow=open;endSize=12;dashed=1;html=1;rounded=0;exitX=0.653;exitY=1.167;exitDx=0;exitDy=0;exitPerimeter=0;entryX=0.5;entryY=0;entryDx=0;entryDy=0;" parent="1" source="gDB7nwy7ESsKub3q5WBZ-4" target="x2ZW6m5DBQwnr-81MUE0-57" edge="1">
          <mxGeometry width="160" relative="1" as="geometry">
            <mxPoint x="120" y="1019" as="sourcePoint" />
            <mxPoint x="280" y="1019" as="targetPoint" />
          </mxGeometry>
        </mxCell>
        <mxCell id="UiS83PjQYig-AAICUWql-6" value="" style="endArrow=open;endSize=12;dashed=1;html=1;rounded=0;exitX=0.473;exitY=1.051;exitDx=0;exitDy=0;exitPerimeter=0;entryX=0.5;entryY=0;entryDx=0;entryDy=0;" parent="1" source="gDB7nwy7ESsKub3q5WBZ-4" target="x2ZW6m5DBQwnr-81MUE0-67" edge="1">
          <mxGeometry width="160" relative="1" as="geometry">
            <mxPoint x="130" y="1029" as="sourcePoint" />
            <mxPoint x="290" y="1029" as="targetPoint" />
            <Array as="points">
              <mxPoint x="352" y="1169" />
            </Array>
          </mxGeometry>
        </mxCell>
        <mxCell id="UiS83PjQYig-AAICUWql-7" value="" style="endArrow=open;endSize=12;dashed=1;html=1;rounded=0;exitX=0.71;exitY=1.036;exitDx=0;exitDy=0;exitPerimeter=0;entryX=0.5;entryY=0;entryDx=0;entryDy=0;" parent="1" source="gDB7nwy7ESsKub3q5WBZ-4" target="x2ZW6m5DBQwnr-81MUE0-69" edge="1">
          <mxGeometry width="160" relative="1" as="geometry">
            <mxPoint x="140" y="1039" as="sourcePoint" />
            <mxPoint x="300" y="1039" as="targetPoint" />
            <Array as="points">
              <mxPoint x="510" y="1059" />
            </Array>
          </mxGeometry>
        </mxCell>
        <mxCell id="UiS83PjQYig-AAICUWql-8" value="" style="endArrow=open;endSize=12;dashed=1;html=1;rounded=0;exitX=0.684;exitY=1.051;exitDx=0;exitDy=0;exitPerimeter=0;" parent="1" source="gDB7nwy7ESsKub3q5WBZ-4" edge="1">
          <mxGeometry width="160" relative="1" as="geometry">
            <mxPoint x="150" y="1049" as="sourcePoint" />
            <mxPoint x="620" y="1201" as="targetPoint" />
            <Array as="points">
              <mxPoint x="480" y="1049" />
              <mxPoint x="530" y="1079" />
              <mxPoint x="530" y="1199" />
            </Array>
          </mxGeometry>
        </mxCell>
        <mxCell id="UiS83PjQYig-AAICUWql-9" value="" style="endArrow=open;endSize=12;dashed=1;html=1;rounded=0;entryX=0.269;entryY=0.023;entryDx=0;entryDy=0;entryPerimeter=0;exitX=0.995;exitY=0.983;exitDx=0;exitDy=0;exitPerimeter=0;" parent="1" source="gDB7nwy7ESsKub3q5WBZ-4" target="gDB7nwy7ESsKub3q5WBZ-14" edge="1">
          <mxGeometry width="160" relative="1" as="geometry">
            <mxPoint x="610" y="919" as="sourcePoint" />
            <mxPoint x="790" y="919" as="targetPoint" />
          </mxGeometry>
        </mxCell>
        <mxCell id="UiS83PjQYig-AAICUWql-10" value="" style="endArrow=open;endSize=12;dashed=1;html=1;rounded=0;exitX=0.014;exitY=1.095;exitDx=0;exitDy=0;exitPerimeter=0;entryX=0.763;entryY=-0.022;entryDx=0;entryDy=0;entryPerimeter=0;" parent="1" source="gDB7nwy7ESsKub3q5WBZ-13" target="gDB7nwy7ESsKub3q5WBZ-14" edge="1">
          <mxGeometry width="160" relative="1" as="geometry">
            <mxPoint x="640" y="929" as="sourcePoint" />
            <mxPoint x="800" y="929" as="targetPoint" />
          </mxGeometry>
        </mxCell>
        <mxCell id="UiS83PjQYig-AAICUWql-11" value="" style="endArrow=open;endSize=12;dashed=1;html=1;rounded=0;exitX=0.524;exitY=0.98;exitDx=0;exitDy=0;exitPerimeter=0;entryX=0.5;entryY=0;entryDx=0;entryDy=0;" parent="1" source="gDB7nwy7ESsKub3q5WBZ-13" target="x2ZW6m5DBQwnr-81MUE0-84" edge="1">
          <mxGeometry width="160" relative="1" as="geometry">
            <mxPoint x="1161" y="949" as="sourcePoint" />
            <mxPoint x="1321" y="949" as="targetPoint" />
          </mxGeometry>
        </mxCell>
        <mxCell id="UiS83PjQYig-AAICUWql-12" value="" style="endArrow=open;endSize=12;dashed=1;html=1;rounded=0;exitX=0.254;exitY=1.044;exitDx=0;exitDy=0;exitPerimeter=0;entryX=0.5;entryY=0;entryDx=0;entryDy=0;" parent="1" source="gDB7nwy7ESsKub3q5WBZ-13" target="x2ZW6m5DBQwnr-81MUE0-80" edge="1">
          <mxGeometry width="160" relative="1" as="geometry">
            <mxPoint x="1171" y="959" as="sourcePoint" />
            <mxPoint x="1331" y="959" as="targetPoint" />
          </mxGeometry>
        </mxCell>
        <mxCell id="UiS83PjQYig-AAICUWql-26" value="PriorityOrder" style="swimlane;fontStyle=1;align=center;verticalAlign=top;childLayout=stackLayout;horizontal=1;startSize=26;horizontalStack=0;resizeParent=1;resizeParentMax=0;resizeLast=0;collapsible=1;marginBottom=0;whiteSpace=wrap;html=1;" parent="1" vertex="1">
          <mxGeometry x="570" y="-59" width="440" height="140" as="geometry" />
        </mxCell>
        <mxCell id="UiS83PjQYig-AAICUWql-27" value="-_priorityDate: DateTime&lt;div&gt;-_priorityTime: string&lt;/div&gt;&lt;div&gt;+PriorityDate: DateTime&lt;/div&gt;&lt;div&gt;+PriorityTime: string&lt;/div&gt;" style="text;strokeColor=none;fillColor=none;align=left;verticalAlign=top;spacingLeft=4;spacingRight=4;overflow=hidden;rotatable=0;points=[[0,0.5],[1,0.5]];portConstraint=eastwest;whiteSpace=wrap;html=1;" parent="UiS83PjQYig-AAICUWql-26" vertex="1">
          <mxGeometry y="26" width="440" height="64" as="geometry" />
        </mxCell>
        <mxCell id="UiS83PjQYig-AAICUWql-28" value="" style="line;strokeWidth=1;fillColor=none;align=left;verticalAlign=middle;spacingTop=-1;spacingLeft=3;spacingRight=3;rotatable=0;labelPosition=right;points=[];portConstraint=eastwest;strokeColor=inherit;" parent="UiS83PjQYig-AAICUWql-26" vertex="1">
          <mxGeometry y="90" width="440" height="8" as="geometry" />
        </mxCell>
        <mxCell id="UiS83PjQYig-AAICUWql-29" value="+Order(index: int, country: string, city: string, street: string, building: string, apartment: string, date: string, items: List&amp;lt;Item&amp;gt;, orderStatus: OrderStatus)" style="text;strokeColor=none;fillColor=none;align=left;verticalAlign=top;spacingLeft=4;spacingRight=4;overflow=hidden;rotatable=0;points=[[0,0.5],[1,0.5]];portConstraint=eastwest;whiteSpace=wrap;html=1;" parent="UiS83PjQYig-AAICUWql-26" vertex="1">
          <mxGeometry y="98" width="440" height="42" as="geometry" />
        </mxCell>
        <mxCell id="UiS83PjQYig-AAICUWql-30" value="" style="endArrow=block;endSize=16;endFill=0;html=1;rounded=0;entryX=0.5;entryY=0;entryDx=0;entryDy=0;exitX=0.488;exitY=1.01;exitDx=0;exitDy=0;exitPerimeter=0;" parent="1" source="UiS83PjQYig-AAICUWql-29" target="4exrZDZuvI7Ryyr3zXt3-5" edge="1">
          <mxGeometry width="160" relative="1" as="geometry">
            <mxPoint x="800" y="101" as="sourcePoint" />
            <mxPoint x="940" y="101" as="targetPoint" />
          </mxGeometry>
        </mxCell>
        <mxCell id="T-l8NZZZjaxKo_g0VAF9-1" value="PointsDiscount" style="swimlane;fontStyle=1;align=center;verticalAlign=top;childLayout=stackLayout;horizontal=1;startSize=26;horizontalStack=0;resizeParent=1;resizeParentMax=0;resizeLast=0;collapsible=1;marginBottom=0;whiteSpace=wrap;html=1;" vertex="1" parent="1">
          <mxGeometry x="1330" y="450" width="250" height="150" as="geometry" />
        </mxCell>
        <mxCell id="T-l8NZZZjaxKo_g0VAF9-2" value="-_points: int&lt;div&gt;+Points: int&lt;/div&gt;&lt;div&gt;+Info: String&lt;/div&gt;" style="text;strokeColor=none;fillColor=none;align=left;verticalAlign=top;spacingLeft=4;spacingRight=4;overflow=hidden;rotatable=0;points=[[0,0.5],[1,0.5]];portConstraint=eastwest;whiteSpace=wrap;html=1;" vertex="1" parent="T-l8NZZZjaxKo_g0VAF9-1">
          <mxGeometry y="26" width="250" height="54" as="geometry" />
        </mxCell>
        <mxCell id="T-l8NZZZjaxKo_g0VAF9-3" value="" style="line;strokeWidth=1;fillColor=none;align=left;verticalAlign=middle;spacingTop=-1;spacingLeft=3;spacingRight=3;rotatable=0;labelPosition=right;points=[];portConstraint=eastwest;strokeColor=inherit;" vertex="1" parent="T-l8NZZZjaxKo_g0VAF9-1">
          <mxGeometry y="80" width="250" height="8" as="geometry" />
        </mxCell>
        <mxCell id="T-l8NZZZjaxKo_g0VAF9-4" value="+Calculate(items: List&amp;lt;Item&amp;gt;): double&lt;div&gt;+Apply(items: List&amp;lt;Item&amp;gt;: double&lt;/div&gt;&lt;div&gt;+Updaet(items: List&amp;lt;Item&amp;gt;)&lt;/div&gt;" style="text;strokeColor=none;fillColor=none;align=left;verticalAlign=top;spacingLeft=4;spacingRight=4;overflow=hidden;rotatable=0;points=[[0,0.5],[1,0.5]];portConstraint=eastwest;whiteSpace=wrap;html=1;" vertex="1" parent="T-l8NZZZjaxKo_g0VAF9-1">
          <mxGeometry y="88" width="250" height="62" as="geometry" />
        </mxCell>
        <mxCell id="T-l8NZZZjaxKo_g0VAF9-5" value="PresentDiscount" style="swimlane;fontStyle=1;align=center;verticalAlign=top;childLayout=stackLayout;horizontal=1;startSize=26;horizontalStack=0;resizeParent=1;resizeParentMax=0;resizeLast=0;collapsible=1;marginBottom=0;whiteSpace=wrap;html=1;" vertex="1" parent="1">
          <mxGeometry x="1026" y="415" width="250" height="200" as="geometry" />
        </mxCell>
        <mxCell id="T-l8NZZZjaxKo_g0VAF9-6" value="&lt;div&gt;+Category: Category&lt;/div&gt;-_discount: int&lt;div&gt;-_totalCosts: double&lt;/div&gt;&lt;div&gt;+Discount: int&lt;/div&gt;&lt;div&gt;+TotalCosts: double&lt;br&gt;&lt;div&gt;+Info: String&lt;/div&gt;&lt;/div&gt;&lt;div&gt;&lt;br&gt;&lt;/div&gt;" style="text;strokeColor=none;fillColor=none;align=left;verticalAlign=top;spacingLeft=4;spacingRight=4;overflow=hidden;rotatable=0;points=[[0,0.5],[1,0.5]];portConstraint=eastwest;whiteSpace=wrap;html=1;" vertex="1" parent="T-l8NZZZjaxKo_g0VAF9-5">
          <mxGeometry y="26" width="250" height="94" as="geometry" />
        </mxCell>
        <mxCell id="T-l8NZZZjaxKo_g0VAF9-7" value="" style="line;strokeWidth=1;fillColor=none;align=left;verticalAlign=middle;spacingTop=-1;spacingLeft=3;spacingRight=3;rotatable=0;labelPosition=right;points=[];portConstraint=eastwest;strokeColor=inherit;" vertex="1" parent="T-l8NZZZjaxKo_g0VAF9-5">
          <mxGeometry y="120" width="250" height="8" as="geometry" />
        </mxCell>
        <mxCell id="T-l8NZZZjaxKo_g0VAF9-8" value="+Calculate(items: List&amp;lt;Item&amp;gt;): double&lt;div&gt;+Apply(items: List&amp;lt;Item&amp;gt;: double&lt;/div&gt;&lt;div&gt;+Updaet(items: List&amp;lt;Item&amp;gt;)&lt;/div&gt;&lt;div&gt;+PresentDiscount(category: Category)&lt;/div&gt;" style="text;strokeColor=none;fillColor=none;align=left;verticalAlign=top;spacingLeft=4;spacingRight=4;overflow=hidden;rotatable=0;points=[[0,0.5],[1,0.5]];portConstraint=eastwest;whiteSpace=wrap;html=1;" vertex="1" parent="T-l8NZZZjaxKo_g0VAF9-5">
          <mxGeometry y="128" width="250" height="72" as="geometry" />
        </mxCell>
        <mxCell id="T-l8NZZZjaxKo_g0VAF9-9" value="" style="endArrow=diamondThin;endFill=1;endSize=24;html=1;rounded=0;entryX=1;entryY=0.5;entryDx=0;entryDy=0;exitX=0;exitY=0.5;exitDx=0;exitDy=0;" edge="1" parent="1" source="x2ZW6m5DBQwnr-81MUE0-26" target="4exrZDZuvI7Ryyr3zXt3-6">
          <mxGeometry width="160" relative="1" as="geometry">
            <mxPoint x="1030" y="430" as="sourcePoint" />
            <mxPoint x="1190" y="430" as="targetPoint" />
          </mxGeometry>
        </mxCell>
        <mxCell id="T-l8NZZZjaxKo_g0VAF9-10" value="1" style="text;html=1;align=center;verticalAlign=middle;resizable=0;points=[];autosize=1;strokeColor=none;fillColor=none;" vertex="1" parent="1">
          <mxGeometry x="991" y="222" width="30" height="30" as="geometry" />
        </mxCell>
        <mxCell id="T-l8NZZZjaxKo_g0VAF9-11" value="1" style="text;html=1;align=center;verticalAlign=middle;resizable=0;points=[];autosize=1;strokeColor=none;fillColor=none;" vertex="1" parent="1">
          <mxGeometry x="1029" y="217" width="30" height="30" as="geometry" />
        </mxCell>
        <mxCell id="T-l8NZZZjaxKo_g0VAF9-12" value="" style="endArrow=diamondThin;endFill=1;endSize=24;html=1;rounded=0;entryX=0.716;entryY=-0.014;entryDx=0;entryDy=0;entryPerimeter=0;exitX=0.451;exitY=1.066;exitDx=0;exitDy=0;exitPerimeter=0;" edge="1" parent="1" source="T-l8NZZZjaxKo_g0VAF9-4" target="gDB7nwy7ESsKub3q5WBZ-10">
          <mxGeometry width="160" relative="1" as="geometry">
            <mxPoint x="1360" y="650" as="sourcePoint" />
            <mxPoint x="1520" y="650" as="targetPoint" />
          </mxGeometry>
        </mxCell>
        <mxCell id="T-l8NZZZjaxKo_g0VAF9-14" value="" style="endArrow=diamondThin;endFill=1;endSize=24;html=1;rounded=0;entryX=0.283;entryY=0.004;entryDx=0;entryDy=0;entryPerimeter=0;exitX=0.444;exitY=1.057;exitDx=0;exitDy=0;exitPerimeter=0;" edge="1" parent="1" source="T-l8NZZZjaxKo_g0VAF9-8" target="gDB7nwy7ESsKub3q5WBZ-10">
          <mxGeometry width="160" relative="1" as="geometry">
            <mxPoint x="1130" y="640" as="sourcePoint" />
            <mxPoint x="1290" y="640" as="targetPoint" />
          </mxGeometry>
        </mxCell>
        <mxCell id="T-l8NZZZjaxKo_g0VAF9-15" value="1" style="text;html=1;align=center;verticalAlign=middle;resizable=0;points=[];autosize=1;strokeColor=none;fillColor=none;" vertex="1" parent="1">
          <mxGeometry x="1140" y="669" width="30" height="30" as="geometry" />
        </mxCell>
        <mxCell id="T-l8NZZZjaxKo_g0VAF9-16" value="n" style="text;html=1;align=center;verticalAlign=middle;resizable=0;points=[];autosize=1;strokeColor=none;fillColor=none;" vertex="1" parent="1">
          <mxGeometry x="1136" y="615" width="30" height="30" as="geometry" />
        </mxCell>
        <mxCell id="T-l8NZZZjaxKo_g0VAF9-17" value="1" style="text;html=1;align=center;verticalAlign=middle;resizable=0;points=[];autosize=1;strokeColor=none;fillColor=none;" vertex="1" parent="1">
          <mxGeometry x="1440" y="669" width="30" height="30" as="geometry" />
        </mxCell>
        <mxCell id="T-l8NZZZjaxKo_g0VAF9-18" value="1" style="text;html=1;align=center;verticalAlign=middle;resizable=0;points=[];autosize=1;strokeColor=none;fillColor=none;" vertex="1" parent="1">
          <mxGeometry x="1440" y="600" width="30" height="30" as="geometry" />
        </mxCell>
        <mxCell id="T-l8NZZZjaxKo_g0VAF9-19" value="" style="endArrow=diamondThin;endFill=1;endSize=24;html=1;rounded=0;entryX=0;entryY=0.5;entryDx=0;entryDy=0;exitX=1.005;exitY=0.211;exitDx=0;exitDy=0;exitPerimeter=0;" edge="1" parent="1" source="x2ZW6m5DBQwnr-81MUE0-21" target="T-l8NZZZjaxKo_g0VAF9-6">
          <mxGeometry width="160" relative="1" as="geometry">
            <mxPoint x="830" y="490" as="sourcePoint" />
            <mxPoint x="990" y="490" as="targetPoint" />
          </mxGeometry>
        </mxCell>
        <mxCell id="T-l8NZZZjaxKo_g0VAF9-20" value="1" style="text;html=1;align=center;verticalAlign=middle;resizable=0;points=[];autosize=1;strokeColor=none;fillColor=none;" vertex="1" parent="1">
          <mxGeometry x="996" y="450" width="30" height="30" as="geometry" />
        </mxCell>
        <mxCell id="T-l8NZZZjaxKo_g0VAF9-21" value="1" style="text;html=1;align=center;verticalAlign=middle;resizable=0;points=[];autosize=1;strokeColor=none;fillColor=none;" vertex="1" parent="1">
          <mxGeometry x="440" y="490" width="30" height="30" as="geometry" />
        </mxCell>
        <mxCell id="T-l8NZZZjaxKo_g0VAF9-22" value="&amp;lt;&amp;lt;interface&amp;gt;&amp;gt;&lt;div&gt;IDiscount&lt;/div&gt;" style="swimlane;fontStyle=1;align=center;verticalAlign=top;childLayout=stackLayout;horizontal=1;startSize=40;horizontalStack=0;resizeParent=1;resizeParentMax=0;resizeLast=0;collapsible=1;marginBottom=0;whiteSpace=wrap;html=1;" vertex="1" parent="1">
          <mxGeometry x="1680" y="410" width="220" height="130" as="geometry" />
        </mxCell>
        <mxCell id="T-l8NZZZjaxKo_g0VAF9-23" value="Info: string" style="text;strokeColor=none;fillColor=none;align=left;verticalAlign=top;spacingLeft=4;spacingRight=4;overflow=hidden;rotatable=0;points=[[0,0.5],[1,0.5]];portConstraint=eastwest;whiteSpace=wrap;html=1;" vertex="1" parent="T-l8NZZZjaxKo_g0VAF9-22">
          <mxGeometry y="40" width="220" height="26" as="geometry" />
        </mxCell>
        <mxCell id="T-l8NZZZjaxKo_g0VAF9-24" value="" style="line;strokeWidth=1;fillColor=none;align=left;verticalAlign=middle;spacingTop=-1;spacingLeft=3;spacingRight=3;rotatable=0;labelPosition=right;points=[];portConstraint=eastwest;strokeColor=inherit;" vertex="1" parent="T-l8NZZZjaxKo_g0VAF9-22">
          <mxGeometry y="66" width="220" height="8" as="geometry" />
        </mxCell>
        <mxCell id="T-l8NZZZjaxKo_g0VAF9-25" value="Calculate(items: List&amp;lt;Item&amp;gt;): double&lt;div&gt;Apply(items: List&amp;lt;Item&amp;gt;): double&lt;/div&gt;&lt;div&gt;Update(items: List&amp;lt;Item&amp;gt;)&lt;/div&gt;" style="text;strokeColor=none;fillColor=none;align=left;verticalAlign=top;spacingLeft=4;spacingRight=4;overflow=hidden;rotatable=0;points=[[0,0.5],[1,0.5]];portConstraint=eastwest;whiteSpace=wrap;html=1;" vertex="1" parent="T-l8NZZZjaxKo_g0VAF9-22">
          <mxGeometry y="74" width="220" height="56" as="geometry" />
        </mxCell>
        <mxCell id="T-l8NZZZjaxKo_g0VAF9-26" value="" style="endArrow=block;dashed=1;endFill=0;endSize=12;html=1;rounded=0;entryX=-0.012;entryY=0.093;entryDx=0;entryDy=0;exitX=0.992;exitY=0.047;exitDx=0;exitDy=0;exitPerimeter=0;entryPerimeter=0;" edge="1" parent="1" source="T-l8NZZZjaxKo_g0VAF9-5" target="T-l8NZZZjaxKo_g0VAF9-22">
          <mxGeometry width="160" relative="1" as="geometry">
            <mxPoint x="1270" y="450" as="sourcePoint" />
            <mxPoint x="1430" y="450" as="targetPoint" />
          </mxGeometry>
        </mxCell>
        <mxCell id="T-l8NZZZjaxKo_g0VAF9-27" value="" style="endArrow=block;dashed=1;endFill=0;endSize=12;html=1;rounded=0;exitX=1.001;exitY=0.105;exitDx=0;exitDy=0;exitPerimeter=0;entryX=-0.006;entryY=-0.021;entryDx=0;entryDy=0;entryPerimeter=0;" edge="1" parent="1" source="T-l8NZZZjaxKo_g0VAF9-2" target="T-l8NZZZjaxKo_g0VAF9-25">
          <mxGeometry width="160" relative="1" as="geometry">
            <mxPoint x="1600" y="530" as="sourcePoint" />
            <mxPoint x="1760" y="530" as="targetPoint" />
          </mxGeometry>
        </mxCell>
      </root>
    </mxGraphModel>
  </diagram>
</mxfile>
